<svg width="73" height="76" xmlns="http://www.w3.org/2000/svg">

 <g>
  <title>Layer 1</title>
  <path stroke="#000" id="svg_13" d="m16.54875,34.93625c-9.14295,0 -16.54875,-7.81722 -16.54875,-17.46812c0,-9.6509 7.4058,-17.46813 16.54875,-17.46813c9.14297,0 16.54876,7.81723 16.54876,17.46813c0,9.6509 -7.40579,17.46812 -16.54876,17.46812z" opacity="undefined" stroke-width="0" fill="#ffc244"/>
  <path stroke="#000" id="svg_11" d="m56.64585,76.16845c-9.14295,0 -16.54875,-7.81722 -16.54875,-17.46812c0,-9.6509 7.4058,-17.46813 16.54875,-17.46813c9.14297,0 16.54876,7.81723 16.54876,17.46813c0,9.6509 -7.40579,17.46812 -16.54876,17.46812z" opacity="undefined" stroke-width="0" fill="#ffc244"/>
  <path stroke="#000" id="svg_12" d="m17.02268,75.69451c-9.14295,0 -16.54875,-7.81722 -16.54875,-17.46812c0,-9.6509 7.4058,-17.46813 16.54875,-17.46813c9.14297,0 16.54876,7.81723 16.54876,17.46813c0,9.6509 -7.40579,17.46812 -16.54876,17.46812z" opacity="undefined" stroke-width="0" fill="#ffc244"/>
  <path stroke="#000" id="svg_9" d="m56.54875,35.41019c-9.14295,0 -16.54875,-7.81722 -16.54875,-17.46813c0,-9.6509 7.4058,-17.46813 16.54875,-17.46813c9.14296,0 16.54875,7.81723 16.54875,17.46813c0,9.6509 -7.40579,17.46813 -16.54875,17.46813z" opacity="undefined" stroke-width="0" fill="#ffc244"/>
 </g>
</svg>