<svg width="70" height="70" viewBox="0 0 70 70" fill="none" xmlns="http://www.w3.org/2000/svg">
<path d="M32.6904 16.7074L35.115 19.8633L37.3941 16.6006C41.8388 10.2374 48.8345 9.09819 54.6538 11.5013C60.5017 13.9164 64.9502 19.8392 64.0498 27.6634C63.5864 31.6933 61.6211 35.7503 58.7015 39.6651C55.7925 43.5656 52.0556 47.1633 48.3068 50.2491C44.5674 53.3273 40.8822 55.8421 38.1271 57.5892C36.8729 58.3843 35.8168 59.0169 35.0427 59.4681C34.2642 58.9909 33.1973 58.3207 31.9289 57.4816C29.168 55.6551 25.4749 53.0441 21.7266 49.8979C17.9682 46.7436 14.2204 43.1059 11.3016 39.2369C8.36501 35.3443 6.41437 31.4106 5.95383 27.6429C5.06378 20.3616 9.25707 14.4233 15.0171 11.8824C20.6891 9.38041 27.7261 10.2466 32.6904 16.7074Z" stroke="#E7E7E7" stroke-width="6"/>
</svg>
