<svg width="14" height="16" viewBox="0 0 14 16" fill="none" xmlns="http://www.w3.org/2000/svg">
<path fill-rule="evenodd" clip-rule="evenodd" d="M7 7C5.34315 7 4 5.65685 4 4C4 2.34315 5.34315 1 7 1C8.65686 1 10 2.34315 10 4C10 5.65685 8.65686 7 7 7ZM3 4C3 1.79086 4.79086 0 7 0C9.20914 0 11 1.79086 11 4C11 6.20914 9.20914 8 7 8C4.79086 8 3 6.20914 3 4ZM5.25 10H8.75C11.0972 10 13 11.9028 13 14.25C13 14.6642 12.6642 15 12.25 15H1.75C1.33579 15 1 14.6642 1 14.25C1 11.9028 2.90279 10 5.25 10ZM0 14.25C0 11.3505 2.35051 9 5.25 9H8.75C11.6495 9 14 11.3505 14 14.25C14 15.2165 13.2165 16 12.25 16H1.75C0.783502 16 0 15.2165 0 14.25Z" fill="#293358"/>
</svg>
