<svg width="14" height="13" fill="none" xmlns="http://www.w3.org/2000/svg"><path fill-rule="evenodd" clip-rule="evenodd" d="M11.219 3.849c.042-.012.098.013.153.081l2.518 2.31c.147.138.147.347 0 .45l-2.518 2.345c-.056.068-.111.085-.153.064-.043-.02-.07-.081-.07-.169V4c0-.086.027-.138.07-.15zM6.91 0h.179l.171.067L9.852 2.48c.111.138.073.242-.112.242H8.666c-.185 0-.332.138-.332.311v1.792c0 .174-.149.311-.372.311H6.075c-.185 0-.334-.137-.334-.31V3.033c0-.173-.147-.31-.335-.31H4.26c-.185 0-.223-.105-.112-.243L6.741.067 6.911 0zM2.851 3.797c.047.021.076.082.076.17v5.032c0 .088-.03.14-.076.157-.045.017-.11 0-.185-.052L.11 6.69c-.147-.103-.147-.312 0-.45l2.556-2.378c.076-.069.14-.086.185-.065zM6.075 7.758h1.887c.223 0 .372.137.372.31v1.897c0 .207.148.345.332.345h1.001c.185 0 .258.102.111.206L7.26 12.895a.385.385 0 0 1-.26.104.38.38 0 0 1-.259-.104l-2.518-2.379c-.149-.104-.075-.206.11-.206h1.074c.187 0 .334-.138.334-.345V8.069c0-.174.15-.311.334-.311z" fill="#ED1C24"/></svg>