<svg width="11" height="16" fill="none" xmlns="http://www.w3.org/2000/svg"><g clip-path="url(#clip0)"><path d="M10.547 9.17L5.231 7.987c-1.583-.367-2.573-1.92-2.206-3.5a2.92 2.92 0 0 1 3.507-2.2c1.583.366 2.573 1.918 2.206 3.498-.17.79-.65 1.44-1.301 1.835-.028 0-.028.028-.028.056s.028.057.056.085l2.375.536c.057 0 .114 0 .142-.057a5.048 5.048 0 0 0 1.046-3.075A5.115 5.115 0 0 0 6.193.056h-.227a5.61 5.61 0 0 0-3.45 1.072 5.839 5.839 0 0 0-1.442 8.156L5.797 16c.028.028.056.056.085.056.028 0 .056-.028.084-.056l4.638-6.604c0-.028.028-.028.028-.056 0-.113-.056-.141-.085-.17z" fill="#FFC629"/></g><defs><clipPath id="clip0"><path fill="#fff" d="M0 0h11v16H0z"/></clipPath></defs></svg>