<?xml version="1.0" encoding="utf-8"?>
<!DOCTYPE svg PUBLIC "-//W3C//DTD SVG 1.1//EN" "http://www.w3.org/Graphics/SVG/1.1/DTD/svg11.dtd">
<svg width="103" height="103" viewBox="0 0 103 103" fill="none" xmlns="http://www.w3.org/2000/svg">
<g clip-path="url(#clip0_61_102)">
<path d="M60.9043 54.1374C67.6646 54.1374 73.1449 48.6571 73.1449 41.8968C73.1449 35.1365 67.6646 29.6562 60.9043 29.6562C54.1441 29.6562 48.6638 35.1365 48.6638 41.8968C48.6638 48.6571 54.1441 54.1374 60.9043 54.1374Z" stroke="#FF2F00" stroke-width="6" stroke-miterlimit="10"/>
<path d="M60.9167 37.6529L56.6946 41.875L60.9167 46.0971L65.1388 41.875L60.9167 37.6529Z" fill="#FF2F00"/>
<path d="M69.2638 33.537L93.944 8.75732" stroke="#FF2F00" stroke-width="6" stroke-miterlimit="10"/>
<path d="M56.8242 30.3524C57.3217 24.68 60.1082 17.5147 68.0696 9.65291C75.8319 1.89059 88.4705 0.497357 95.5362 7.56306C102.602 14.6288 101.209 27.2674 93.4464 35.0297C85.3855 43.0906 78.0213 45.8771 72.3488 46.2751" stroke="#FF2F00" stroke-width="6" stroke-miterlimit="10"/>
<path d="M50.455 35.7268C36.3236 31.5471 22.9884 46.2756 22.9884 46.2756L4.77679 64.4872C2.4879 66.776 2.4879 70.5577 4.77679 72.9461C7.06568 75.3345 10.8473 75.235 13.2357 72.9461L31.5468 54.635C31.5468 54.635 40.3043 44.7828 50.057 47.2707" stroke="#FF2F00" stroke-width="6" stroke-miterlimit="10"/>
<path d="M55.7295 53.0425C58.2174 62.7952 48.3652 71.5527 48.3652 71.5527L30.0541 89.8638C27.7652 92.1527 27.7652 95.9343 30.0541 98.3227C32.343 100.711 36.1247 100.612 38.5131 98.3227L56.8242 80.0116C56.8242 80.0116 71.5527 66.6763 67.373 52.6444V52.5449" stroke="#FF2F00" stroke-width="6" stroke-miterlimit="10"/>
</g>
<defs>
<clipPath id="clip0_61_102">
<rect width="103" height="103" fill="white"/>
</clipPath>
</defs>
</svg>
