<?xml version="1.0" encoding="utf-8"?>
<!DOCTYPE svg PUBLIC "-//W3C//DTD SVG 1.1//EN" "http://www.w3.org/Graphics/SVG/1.1/DTD/svg11.dtd">
<svg width="103" height="103" viewBox="0 0 103 103" fill="none" xmlns="http://www.w3.org/2000/svg">
<path d="M103 28.1196V23.5987C103 15.1975 96.1652 8.3623 87.7636 8.3623H53.6328H50.6231H39.5309C35.9673 8.3623 33.0031 10.9727 32.4472 14.3816H28.3403C23.8918 14.3816 20.2727 18.0009 20.2727 22.4492V22.8491H0V28.8684H20.2725V29.2685C20.2725 33.717 23.8918 37.3361 28.3401 37.3361H32.447C33.003 40.7449 35.9671 43.3553 39.5307 43.3553H57.6036L62.3255 55.2142H68.3379L73.1203 66.7516C73.1386 66.8027 73.1626 66.9041 73.0805 67.0244C72.987 67.1614 72.8667 67.1614 72.8212 67.1614H51.9624V94.6373H91.6406C97.58 94.6373 102.412 89.8053 102.412 83.8659V66.3718L92.0892 42.7303C98.3899 40.8622 103 35.019 103 28.1196ZM32.311 31.3174H28.3401C27.2107 31.3174 26.2918 30.3985 26.2918 29.2691V22.4498C26.2918 21.3204 27.2107 20.4014 28.3401 20.4014H32.311V31.3174ZM50.6231 37.3367H39.5309C38.8914 37.3367 38.3713 36.8167 38.3713 36.1773V15.5413C38.3713 14.9018 38.8914 14.382 39.5309 14.382H50.6231V37.3367ZM96.3923 83.8667C96.3923 86.487 94.2607 88.6186 91.6402 88.6186H57.9817V83.6145H96.3923V83.8667ZM96.9807 28.1196C96.9807 33.2018 92.8461 37.3365 87.7638 37.3365H83.1657L96.3925 67.6291V77.5952H57.9817V73.1817H72.8216C74.9158 73.1817 76.871 72.1491 78.0517 70.4198C79.2327 68.6907 79.4826 66.4939 78.7204 64.5438L67.4433 37.3367H56.6426V14.382H87.7638C92.8461 14.382 96.9807 18.5167 96.9807 23.5989V28.1196Z" fill="#FF2F00"/>
</svg>
