<?xml version="1.0" encoding="utf-8"?>
<!DOCTYPE svg PUBLIC "-//W3C//DTD SVG 1.1//EN" "http://www.w3.org/Graphics/SVG/1.1/DTD/svg11.dtd">
<svg width="103" height="103" viewBox="0 0 103 103" fill="none" xmlns="http://www.w3.org/2000/svg">
<path d="M64.3466 33.3551L67.2109 29.6622L64.4655 26.1227L66.202 21.9973L62.6168 19.2793L63.2084 14.8483L59.0371 13.1478L58.4529 8.72075L53.9823 8.14182L52.2649 4.01082L47.7904 4.59692L45.046 1.04645L40.8801 2.7659L37.3057 0.0473633L33.7313 2.7661L29.5656 1.04664L26.8212 4.59692L22.347 4.01082L20.6296 8.14182L16.1589 8.72035L15.5745 13.1476L11.4032 14.8485L11.9949 19.2793L8.40979 21.9973L10.1461 26.1225L7.40071 29.6622L10.265 33.3551H0V51.3302H7.11505V102.953H25.2664V88.0584L50.7522 78.3654L76.2381 88.0584V102.953H94.3892V51.3305H103V33.3551H64.3466ZM17.0783 27.0204L15.786 23.9502L18.4513 21.9298L18.0111 18.6333L21.1188 17.366L21.5546 14.0642L24.889 13.6327L26.1686 10.5552L29.4974 10.991L31.5375 8.3518L34.6374 9.63138L37.3053 7.60234L39.9731 9.63138L43.0731 8.3518L45.1134 10.9912L48.4424 10.5554L49.7218 13.6329L53.0563 14.0644L53.492 17.3664L56.5997 18.6337L56.1595 21.9303L58.8245 23.9504L57.5321 27.0202L59.5813 29.6622L57.9846 31.721L57.9663 33.3553H16.6339L16.6427 31.7429L15.0291 29.6622L17.0783 27.0204ZM19.2161 96.9612H13.1653V51.3305H19.2163L19.2161 96.9612ZM25.2664 81.6402V68.6724L42.3145 75.1562L25.2664 81.6402ZM50.752 71.9472L38.5556 67.3086H62.9483L50.752 71.9472ZM76.2379 81.6402L59.1898 75.1562L76.2379 68.6724V81.6402ZM76.2379 61.3171H25.2664V51.3302H76.2379V61.3171ZM88.339 96.9612H82.2881V51.3305H88.339V96.9612ZM96.9498 45.3389H6.05024V39.3466L16.6005 39.3628L96.9498 39.3466V45.3389Z" fill="#FF2F00"/>
<path d="M37.3057 25.2515C35.4354 25.2515 33.9139 26.7584 33.9139 28.6103C33.9139 30.4622 35.4354 31.9691 37.3057 31.9691C39.176 31.9691 40.6975 30.4622 40.6975 28.6103C40.6975 26.7584 39.176 25.2515 37.3057 25.2515Z" fill="#FF2F00"/>
</svg>
