<?xml version="1.0" encoding="utf-8"?>
<!DOCTYPE svg PUBLIC "-//W3C//DTD SVG 1.1//EN" "http://www.w3.org/Graphics/SVG/1.1/DTD/svg11.dtd">
<svg width="100" height="100" viewBox="0 0 100 100" fill="none" xmlns="http://www.w3.org/2000/svg">
<g clip-path="url(#clip0_2238_224)">
<path d="M69.3368 35.9768L64.4046 31.0446L59.4724 35.9768L53.2541 29.7585C50.0693 26.5738 46.3453 24.2496 42.3738 22.7825L44.2552 17.5763C38.1 15.3516 31.4396 14.8339 24.9948 16.0792L26.0342 21.4582C20.3094 22.5672 14.8452 25.3339 10.4205 29.7585C-1.38842 41.5678 -1.38856 60.7827 10.4207 72.5919L22.6172 84.7884C27.0614 89.2327 34.293 89.2327 38.7373 84.7884L78.4428 45.0829L73.5105 40.1505L88.7464 24.9146L94.5513 30.7195L98.7249 26.5459L88.7463 16.5673L69.3368 35.9768ZM34.5637 80.6148C32.4207 82.7578 28.9338 82.7578 26.7908 80.6148L14.5943 68.4184C5.08644 58.9105 5.08644 43.4401 14.5943 33.9323C24.1021 24.4244 39.5725 24.4244 49.0804 33.9323L59.4722 44.3241L64.4044 39.3919L70.0954 45.0829L34.5637 80.6148Z" fill="#FF2F00"/>
<path d="M19.8024 39.1428C13.4107 45.5345 13.4106 55.9349 19.8024 62.3268C26.1943 68.7187 36.5946 68.7187 42.9864 62.3268C49.3783 55.9349 49.3783 45.5347 42.9864 39.1428C36.5946 32.751 26.1943 32.751 19.8024 39.1428ZM38.8127 58.1531C34.7223 62.2435 28.0665 62.2434 23.9762 58.1531C19.8857 54.0626 19.8859 47.4068 23.9762 43.3165C28.0666 39.2261 34.7224 39.2262 38.8127 43.3165C42.903 47.4068 42.9033 54.0625 38.8127 58.1531Z" fill="#FF2F00"/>
</g>
<defs>
<clipPath id="clip0_2238_224">
<rect width="100" height="100" fill="white"/>
</clipPath>
</defs>
</svg>
