<?xml version="1.0" encoding="utf-8"?>
<!DOCTYPE svg PUBLIC "-//W3C//DTD SVG 1.1//EN" "http://www.w3.org/Graphics/SVG/1.1/DTD/svg11.dtd">
<svg width="103" height="103" viewBox="0 0 103 103" fill="none" xmlns="http://www.w3.org/2000/svg">
<path fill-rule="evenodd" clip-rule="evenodd" d="M25.2142 2H77.7958L78.3958 4.21606L75.5 5C78.3958 4.21606 78.3961 4.21714 78.3961 4.21714L78.6713 5.23499C78.8508 5.89952 79.1142 6.87464 79.4493 8.11737C80.1195 10.6028 81.0769 14.1588 82.2257 18.4415C84.5232 27.0065 87.587 38.4799 90.651 50.1108C93.7144 61.7392 96.7808 73.535 99.0823 82.7411C100.232 87.3419 101.196 91.3121 101.873 94.2972C102.211 95.7875 102.483 97.0536 102.671 98.0395C102.838 98.9122 103 99.8499 103 100.5H97C97 100.503 96.9996 100.501 96.9986 100.493L96.9965 100.476C96.9842 100.378 96.9358 99.9901 96.7783 99.1675C96.6082 98.2784 96.3534 97.0875 96.0216 95.6246C95.3589 92.7035 94.4081 88.7831 93.2614 84.1964C90.9692 75.0275 87.9106 63.2608 84.849 51.6392C81.788 40.0201 78.7268 28.556 76.4306 19.996C75.2825 15.7162 74.3258 12.1628 73.6562 9.6795L73.2298 8.09889L73.2283 8.10558C73.0929 8.7511 72.8943 9.69883 72.6415 10.9073C72.1359 13.3242 71.4135 16.7838 70.5466 20.9543C68.8127 29.2955 66.5012 40.4784 64.1899 51.8476C61.8781 63.2191 59.5684 74.7676 57.8375 83.8433C56.9717 88.383 56.2534 92.2896 55.7526 95.2403C55.502 96.7172 55.3088 97.9371 55.1792 98.8689C55.1143 99.3351 55.0675 99.7137 55.0375 100.007C55.0226 100.154 55.0127 100.27 55.0067 100.359C55.0052 100.383 55.0039 100.403 55.003 100.421L55.0018 100.446L55.001 100.463C55 100.488 55 100.5 55 100.5H49C49 99.4672 49.3299 97.2425 49.7926 94.5H7.13184C7.08077 94.7292 7.03119 94.9535 6.98313 95.1727C6.65209 96.6827 6.39831 97.9286 6.22879 98.8817C6.14398 99.3585 6.08377 99.7426 6.04558 100.038C6.02659 100.185 6.01448 100.3 6.00738 100.385C5.99992 100.474 6 100.508 6 100.5H0C0 99.7926 0.146115 98.8171 0.3215 97.831C0.510871 96.7663 0.783456 95.4335 1.12233 93.8878C1.80094 90.7925 2.76558 86.752 3.9164 82.1135C6.21926 72.8316 9.28676 61.0784 12.3505 49.5424C15.4151 38.0035 18.4792 26.6692 20.777 18.2205C21.926 13.9959 22.8835 10.4923 23.5538 8.04453C23.889 6.82066 24.1523 5.86075 24.3319 5.20667L24.6073 4.20485C24.6073 4.20485 24.6076 4.20378 27.5 5L24.6076 4.20378L25.2142 2ZM8.5306 88.5H50.8586C51.1867 86.7172 51.5508 84.7797 51.9437 82.7192L51.9856 82.5H10.0031C9.91426 82.8562 9.82651 83.2091 9.73985 83.5583C9.30708 85.3027 8.90236 86.9557 8.5306 88.5ZM54.3231 70.5C53.9161 72.5574 53.5218 74.5638 53.1442 76.5H11.5158C12.0099 74.5596 12.5247 72.5536 13.0552 70.5H54.3231ZM14.6139 64.5H55.5166C55.9118 62.5232 56.3144 60.5182 56.7212 58.5H16.1875C15.6564 60.5167 15.1305 62.5215 14.6139 64.5ZM58.3101 50.6523C58.185 51.2678 58.0599 51.8838 57.9348 52.5H17.7733L18.1495 51.0826C18.5567 49.5494 18.9639 48.0197 19.3693 46.5H59.1559C58.8747 47.8781 58.5924 49.2638 58.3101 50.6523ZM20.974 40.5H60.3834C60.8016 38.4606 61.2139 36.455 61.6165 34.5H22.5864C22.06 36.4544 21.521 38.4599 20.974 40.5ZM24.2058 28.5H62.8547C63.2885 26.4016 63.7046 24.3931 64.0975 22.5H25.8317C25.3177 24.3933 24.7733 26.4016 24.2058 28.5ZM27.4638 16.5H65.3449C65.916 13.758 66.3999 11.4413 66.7686 9.67862L67.1201 8H29.7872C29.6573 8.47376 29.508 9.0186 29.3407 9.6293C28.8543 11.4054 28.2165 13.7384 27.4638 16.5Z" fill="#FF2F00"/>
</svg>
