<?xml version="1.0" encoding="utf-8"?>
<!DOCTYPE svg PUBLIC "-//W3C//DTD SVG 1.1//EN" "http://www.w3.org/Graphics/SVG/1.1/DTD/svg11.dtd">
<svg width="103" height="103" viewBox="0 0 103 103" fill="none" xmlns="http://www.w3.org/2000/svg">
<g clip-path="url(#clip0_1_1789)">
<path fill-rule="evenodd" clip-rule="evenodd" d="M21.0495 14.1964C28.5704 8.98145 38.5809 10.0842 44.805 16.3634L39.2755 20.1975C35.2295 16.8561 29.3086 16.4576 24.7817 19.5966C20.2547 22.7355 18.5425 28.4266 20.2403 33.3962L0.0883291 47.3693C1.3491 49.1936 2.76556 50.8843 4.3149 52.4267C9.4557 57.5446 16.0595 61.0301 23.2931 62.3456C32.7067 64.0576 42.416 61.9541 50.2848 56.4979C53.6869 54.139 56.6244 51.2369 59.0018 47.9404L72.6153 67.6411C73.9858 69.6241 73.4959 72.3432 71.5229 73.7238L58.9041 82.4736C56.9193 83.8371 54.206 83.3391 52.8356 81.3561L39.221 61.6568C36.8852 62.2939 34.4884 62.6948 32.0673 62.8517L47.4411 85.0966C49.7435 88.428 53.5617 90.0829 57.3246 89.7758L62.5109 97.28C65.9463 102.251 72.7565 103.489 77.722 100.046L77.7565 100.022C78.6623 100.526 79.8458 101.113 81.1933 101.607C84.1421 102.686 88.8421 103.652 92.8992 100.839L101.055 95.1028C101.055 95.1028 101.055 95.1027 99.1889 92.4026C97.3229 89.7025 97.3227 89.7026 97.3227 89.7026L89.1671 95.4387C87.8516 96.3508 85.905 96.3137 83.5648 95.4788C86.5737 91.7946 86.9271 86.425 84.0888 82.3182L78.9025 74.814C80.5143 71.3944 80.3121 67.2321 78.0097 63.9007L62.6359 41.6558L62.6343 41.6593C63.8362 38.9958 64.7206 36.175 65.2522 33.2517C65.2829 33.0829 65.3124 32.914 65.3406 32.745L84.523 19.4442L86.3891 22.1443L91.7836 18.4038L79.343 0.403179L73.9486 4.14363L75.8146 6.84373L63.9011 15.1045C63.5388 14.042 63.1266 12.9951 62.6652 11.9674C61.7694 9.97178 60.6882 8.04859 59.4275 6.22434L50.2623 12.5793C41.921 3.3388 27.8237 1.51116 17.3173 8.79618C6.81086 16.0812 3.55542 29.941 9.25339 41.0144L14.7108 37.2303C11.0346 29.1845 13.5285 19.4113 21.0495 14.1964ZM79.5468 12.2439L66.3085 21.4232L66.3966 24.0248L80.7909 14.044L79.5468 12.2439ZM67.9054 93.5396L63.5512 87.2394L74.3401 79.7585L78.6943 86.0587C80.0685 88.047 79.5723 90.7753 77.5861 92.1525L73.9898 94.6461C72.0036 96.0233 69.2796 95.5279 67.9054 93.5396ZM38.4663 39.3973C42.9932 36.2584 44.7055 30.5672 43.0076 25.5977L57.1583 15.7858C59.2099 20.912 59.8028 26.5566 58.7987 32.0781C57.3958 39.792 52.9908 46.6336 46.5527 51.0977C40.1145 55.5619 32.1706 57.2829 24.4685 55.8822C18.9555 54.8796 13.8896 52.3364 9.82185 48.6082L23.9725 38.7964C28.0185 42.1378 33.9393 42.5362 38.4663 39.3973ZM34.7341 33.9971C37.2169 32.2756 37.837 28.8653 36.1194 26.3799C34.4017 23.8945 30.9966 23.2753 28.5138 24.9968C26.0311 26.7183 25.4109 30.1286 27.1286 32.614C28.8463 35.0993 32.2514 35.7186 34.7341 33.9971Z" fill="#FF2F00"/>
</g>
<defs>
<clipPath id="clip0_1_1789">
<rect width="103" height="103" fill="white"/>
</clipPath>
</defs>
</svg>
