<?xml version="1.0" encoding="utf-8"?>
<!DOCTYPE svg PUBLIC "-//W3C//DTD SVG 1.1//EN" "http://www.w3.org/Graphics/SVG/1.1/DTD/svg11.dtd">
<svg width="103" height="103" viewBox="0 0 103 103" fill="none" xmlns="http://www.w3.org/2000/svg">
<path d="M94.7761 32.9959C89.5609 38.2111 81.8384 39.5149 75.4197 36.7067L74.4168 37.7096L37.7099 74.4165L36.7069 75.4194C39.5151 81.8381 38.2113 89.5606 32.9961 94.7758C27.7809 99.991 20.0584 101.295 13.6397 98.4866L21.4625 90.6638L22.2649 87.5548L15.3447 80.6346L12.2357 81.437L4.41287 89.2598C1.70499 82.8411 2.90849 75.2189 8.12368 69.9034C13.3389 64.6882 21.0614 63.3844 27.4801 66.1926L28.483 65.1896L65.1899 28.4827L66.1928 27.4798C63.3846 21.0611 64.6884 13.3386 69.9036 8.12344C75.2191 2.90825 82.9416 1.70474 89.26 4.41263L81.4372 12.2354L80.6349 15.3445L87.555 22.3649L90.6641 21.5626L98.4869 13.7398C101.295 20.0582 99.9913 27.7807 94.7761 32.9959Z" stroke="#FF2F00" stroke-width="6" stroke-miterlimit="10" stroke-linejoin="round"/>
<path d="M62.482 52.5532L95.7789 83.042C99.2892 86.5522 99.2892 92.2689 95.7789 95.7791C92.2687 99.2893 86.5521 99.2893 83.0418 95.7791L52.553 62.4821" stroke="#FF2F00" stroke-width="6" stroke-miterlimit="10" stroke-linejoin="round"/>
<path d="M44.7303 44.7302L4.31256 4.3125" stroke="#FF2F00" stroke-width="6" stroke-miterlimit="10"/>
<path d="M6.4187 2.20654L17.0497 7.12086L14.2415 10.0293L6.4187 2.20654Z" fill="#FF2F00"/>
<path d="M2.20642 6.41895L7.12073 17.0499L10.0292 14.2417L2.20642 6.41895Z" fill="#FF2F00"/>
<path d="M56.1636 70.2047L70.405 56.0635" stroke="#FF2F00" stroke-width="6" stroke-miterlimit="10" stroke-linecap="round"/>
</svg>
