<?xml version="1.0" encoding="utf-8"?>
<!DOCTYPE svg PUBLIC "-//W3C//DTD SVG 1.1//EN" "http://www.w3.org/Graphics/SVG/1.1/DTD/svg11.dtd">
<svg width="103" height="103" viewBox="0 0 103 103" fill="none" xmlns="http://www.w3.org/2000/svg">
<g clip-path="url(#clip0_75_213)">
<path d="M70.4387 21.774V8.49902H32.4454V21.7738H0V93.5009H103V21.7742L70.4387 21.774ZM38.4868 14.4818H64.3975V21.7738H38.4868V14.4818ZM96.9586 87.5184H6.04139V55.3945H14.0965V61.3773H33.9659V55.3945H68.6801V61.3773H88.5494V55.3945H96.9588L96.9586 87.5184ZM20.1377 55.3945V49.4118H27.9245V55.3945H20.1377ZM74.7213 55.3945V49.4118H82.508V55.3945H74.7213ZM96.9586 49.4118H88.5492V43.429H68.6799V49.4118H33.9659V43.429H14.0965V49.4118H6.04139V27.7567H96.9588L96.9586 49.4118Z" fill="#FF2F00"/>
</g>
<defs>
<clipPath id="clip0_75_213">
<rect width="103" height="103" fill="white"/>
</clipPath>
</defs>
</svg>
