<?xml version="1.0" encoding="utf-8"?>
<!DOCTYPE svg PUBLIC "-//W3C//DTD SVG 1.1//EN" "http://www.w3.org/Graphics/SVG/1.1/DTD/svg11.dtd">
<svg width="103" height="103" viewBox="0 0 103 103" fill="none" xmlns="http://www.w3.org/2000/svg">
<path d="M103 71.4228L102.215 65.4277L97.2121 66.0831V46.1753C97.2121 34.0907 92.4415 22.6996 83.779 14.0999C75.1224 5.506 63.659 0.773438 51.5004 0.773438C39.3418 0.773438 27.8778 5.50601 19.2212 14.0997C10.5587 22.6994 5.78812 34.0905 5.78812 46.1751V66.0829L0.785576 65.4275L0 71.4228L5.52498 72.1468C5.37089 75.9962 6.10778 79.8352 7.69965 83.3684C9.3386 87.0058 11.8201 90.1807 14.9302 92.6468L13.9837 99.8709L31.9694 102.227L39.5102 44.6679L21.5244 42.3116L20.5779 49.5357C17.2346 50.9882 14.2512 53.1556 11.8343 55.8949V46.1751C11.8343 35.7138 15.9704 25.8463 23.4808 18.3905C30.9972 10.9292 40.9479 6.81966 51.5 6.81966C62.0521 6.81966 72.0026 10.9292 79.519 18.3907C87.0296 25.8465 91.1655 35.714 91.1655 46.1753V55.8951C88.7484 53.1558 85.765 50.9883 82.4219 49.5359L81.4754 42.3118L63.4898 44.6679L71.0304 102.227L89.0161 99.8709L88.0696 92.6468C91.1799 90.1805 93.6612 87.0058 95.3001 83.3684C96.892 79.8352 97.6289 75.9962 97.4748 72.1466L103 71.4228ZM26.7337 49.0921L32.7297 49.8775L26.7601 95.4463L20.7642 94.661L26.7337 49.0921ZM19.6036 56.9734L15.9044 85.2093C12.5787 81.2351 11.0095 76.0194 11.7078 70.6907L11.8086 69.9208C12.5067 64.5924 15.3661 59.9568 19.6036 56.9734ZM76.2399 95.4465L70.2703 49.8777L76.2663 49.0923L82.236 94.6612L76.2399 95.4465ZM87.0954 85.2091L83.3962 56.973C87.6335 59.9564 90.4931 64.5922 91.191 69.9208L91.292 70.6903C91.9901 76.0194 90.4211 81.2351 87.0954 85.2091Z" fill="#FF2F00"/>
</svg>
