<?xml version="1.0" encoding="utf-8"?>
<!DOCTYPE svg PUBLIC "-//W3C//DTD SVG 1.1//EN" "http://www.w3.org/Graphics/SVG/1.1/DTD/svg11.dtd">
<svg width="103" height="103" viewBox="0 0 103 103" fill="none" xmlns="http://www.w3.org/2000/svg">
<path d="M51.0001 29.8325C39.1687 29.8325 29.5431 39.5525 29.5431 51.4999C29.5431 63.4473 39.1687 73.1674 51.0001 73.1674C62.8315 73.1674 72.457 63.4473 72.457 51.4999C72.457 39.5525 62.8313 29.8325 51.0001 29.8325ZM51.0001 67.1594C42.4495 67.1594 35.4928 60.1344 35.4928 51.4999C35.4928 42.8654 42.4495 35.8405 51.0001 35.8405C59.5508 35.8405 66.5075 42.8654 66.5075 51.4999C66.5075 60.1344 59.5508 67.1594 51.0001 67.1594Z" fill="#FF2F00"/>
<path d="M51.0001 41.8486C45.73 41.8486 41.4424 46.1783 41.4424 51.5001C41.4424 56.8219 45.73 61.1515 51.0001 61.1515C56.2702 61.1515 60.5578 56.8219 60.5578 51.5001C60.5578 46.1783 56.2702 41.8486 51.0001 41.8486ZM51.0001 55.1437C49.0105 55.1437 47.3919 53.5092 47.3919 51.5001C47.3919 49.4909 49.0105 47.8564 51.0001 47.8564C52.9897 47.8564 54.6084 49.4909 54.6084 51.5001C54.6082 53.5092 52.9895 55.1437 51.0001 55.1437Z" fill="#FF2F00"/>
<path d="M102.001 48.4766V43.5406H94.0217C93.901 42.8699 93.7651 42.203 93.6141 41.5408C95.0493 40.3804 96.1774 38.8626 96.8837 37.1098C97.978 34.3927 97.9594 31.408 96.8307 28.7046L94.9313 24.1567L87.5783 27.2876C87.3104 26.8756 87.0353 26.4676 86.754 26.0648C87.6523 24.443 88.1316 22.6063 88.1316 20.7119C88.1316 17.7784 87 15.0205 84.9461 12.9468L81.4898 9.45608L75.8458 15.1555C75.2927 14.7698 74.7295 14.3961 74.1584 14.0356C74.362 12.1888 74.097 10.3082 73.3681 8.56288C72.2397 5.85994 70.1363 3.76252 67.4451 2.65708L62.9175 0.797646L59.9108 8.26052C59.4333 8.16054 58.954 8.0688 58.4735 7.98512C57.1843 3.34971 52.9846 0 48.0071 0H43.1191V8.05713C42.4517 8.17965 41.7877 8.31745 41.1287 8.47095C39.0905 5.91445 35.9717 4.35597 32.6499 4.35597C31.1949 4.35597 29.774 4.64667 28.4273 5.22041L23.9232 7.13798L27.0236 14.5634C26.6154 14.834 26.2116 15.1118 25.8128 15.3959C24.2067 14.4888 22.3878 14.0048 20.5117 14.0048C17.6069 14.0048 14.8758 15.1472 12.8219 17.2215L9.36545 20.7119L15.0093 26.4113C14.6272 26.9697 14.2573 27.5384 13.9003 28.1152C13.5054 28.0711 13.1076 28.049 12.7079 28.049C8.26258 28.049 4.30749 30.7358 2.63206 34.8945L0.790481 39.4659L8.1811 42.5028C8.08229 42.9848 7.99124 43.4688 7.90837 43.9542C3.31817 45.2562 0.000976562 49.4969 0.000976562 54.5234V59.4594H7.97989C8.10061 60.1299 8.23648 60.7972 8.38729 61.4592C6.95232 62.6194 5.82434 64.1372 5.11791 65.8902C4.0236 68.6073 4.04233 71.5918 5.1709 74.295L7.07026 78.8433L14.4232 75.7124C14.6912 76.1246 14.9663 76.5324 15.2476 76.9352C14.3495 78.557 13.87 80.3939 13.87 82.2881C13.87 85.2216 15.0016 87.9795 17.0555 90.0534L20.5117 93.5435L26.1556 87.8447C26.709 88.2306 27.2718 88.6039 27.8432 88.9646C27.6396 90.8114 27.9046 92.692 28.6335 94.4373C29.7617 97.1401 31.8652 99.2373 34.5561 100.343L39.0841 102.203L42.0907 94.7395C42.5682 94.8395 43.0476 94.9314 43.5281 95.0151C44.8172 99.6503 49.017 103 53.9944 103H58.8825V94.9423C59.5499 94.8198 60.2139 94.6819 60.8729 94.5285C62.9111 97.0849 66.0299 98.6432 69.3516 98.6432C70.8063 98.6432 72.2271 98.3527 73.5747 97.779L78.0784 95.861L74.978 88.436C75.3862 88.1654 75.79 87.8876 76.189 87.6035C77.7949 88.5106 79.614 88.9946 81.4898 88.9946C84.3948 88.9946 87.1259 87.852 89.1795 85.7779L92.6363 82.2877L86.9922 76.5883C87.3743 76.0297 87.7441 75.4614 88.1013 74.8844C88.4962 74.9287 88.894 74.9506 89.2936 74.9506C93.7392 74.9506 97.6941 72.2638 99.3695 68.1049L101.211 63.5329L93.8205 60.4968C93.9193 60.0148 94.0103 59.5308 94.0932 59.0454C98.6834 57.7438 102.001 53.5031 102.001 48.4766ZM93.3531 66.7919C92.4475 68.1252 90.9453 68.9438 89.294 68.9438C88.732 68.9438 88.176 68.8458 87.6417 68.6525L85.266 67.7933L84.0392 70.0201C83.0706 71.7777 81.9612 73.4647 80.7418 75.0341L79.1135 77.1293L84.142 82.2073C83.3577 82.7154 82.4449 82.9874 81.4902 82.9874C80.2349 82.9874 79.0843 82.535 78.1627 81.6794L76.3012 79.9511L74.3122 81.5277C72.8772 82.6653 71.3478 83.7066 69.7654 84.6225L67.4808 85.9453L70.2401 92.5535C69.9481 92.6083 69.651 92.6356 69.3514 92.6356C67.4316 92.6356 65.7272 91.5461 64.9041 89.7917L63.8241 87.4905L61.399 88.1899C59.5015 88.7373 57.5346 89.1364 55.5529 89.3764L52.9326 89.6941V96.8769C50.7914 96.4054 49.171 94.5341 49.0743 92.2329L48.9672 89.6816L46.4562 89.3776C44.6447 89.1586 42.8344 88.8029 41.0755 88.3209L38.5335 87.6242L35.8574 94.2675C35.089 93.7348 34.4857 92.9915 34.115 92.1033C33.6275 90.9359 33.593 89.6901 34.015 88.5007L34.8663 86.1018L32.6609 84.8625C30.9201 83.8842 29.2495 82.7639 27.6954 81.5325L25.6205 79.8884L20.5918 84.9661C20.0886 84.1739 19.8193 83.2524 19.8193 82.2884C19.8193 81.0208 20.2673 79.8588 21.1144 78.9282L22.8257 77.0484L21.2646 75.0401C20.1376 73.5905 19.1065 72.0457 18.1998 70.4488L16.8899 68.1417L10.3454 70.9282C10.1751 70.0028 10.2695 69.0462 10.6291 68.1536C11.1014 66.981 11.9483 66.0759 13.0777 65.5362L15.3588 64.4466L14.6661 61.9963C14.1248 60.0824 13.7297 58.0976 13.4923 56.0972L13.1777 53.4512H6.0648C6.53177 51.289 8.3849 49.6526 10.6638 49.5551L13.1903 49.4468L13.4913 46.9113C13.7084 45.0808 14.0606 43.2528 14.5376 41.4782L15.2277 38.9111L8.64886 36.2083C9.55451 34.8752 11.0566 34.0568 12.7079 34.0568C13.2699 34.0568 13.826 34.1548 14.3603 34.3481L16.736 35.2073L17.9629 32.9803C18.9309 31.2233 20.0404 29.5365 21.2602 27.9665L22.8884 25.8713L17.8597 20.7933C18.6443 20.2852 19.5571 20.0132 20.5117 20.0132C21.767 20.0132 22.9177 20.4656 23.8391 21.321L25.7008 23.0497L27.6898 21.4729C29.1244 20.3355 30.6542 19.294 32.2366 18.3777L34.521 17.0549L31.7618 10.4469C32.0539 10.3923 32.3509 10.3648 32.6505 10.3648C34.5702 10.3648 36.2745 11.4543 37.0979 13.2089L38.1779 15.5102L40.603 14.8107C42.5005 14.2633 44.4674 13.8642 46.449 13.6242L49.0694 13.3065V6.12347C51.2106 6.59502 52.831 8.46632 52.9276 10.7675L53.0348 13.319L55.546 13.6228C57.3575 13.8416 59.1676 14.1973 60.9259 14.6793L63.4681 15.3762L66.1446 8.73267C66.913 9.26537 67.516 10.0089 67.8868 10.8971C68.3743 12.0645 68.4087 13.3103 67.9868 14.4997L67.1355 16.8986L69.3409 18.1379C71.0816 19.1162 72.7523 20.2365 74.3064 21.4679L76.3813 23.112L81.4099 18.0343C81.9132 18.8263 82.1825 19.748 82.1825 20.7121C82.1825 21.9796 81.7345 23.1416 80.8874 24.072L79.1755 25.952L80.737 27.9605C81.864 29.4099 82.8951 30.9545 83.8018 32.5516L85.1114 34.8589L91.6562 32.0722C91.8265 32.9976 91.7321 33.9542 91.3725 34.8468C90.9001 36.0194 90.0532 36.9245 88.9237 37.4642L86.6428 38.554L87.3355 41.0041C87.877 42.9182 88.2718 44.903 88.5093 46.9032L88.8239 49.5492H95.937C95.47 51.7114 93.6169 53.3478 91.338 53.4453L88.8115 53.5536L88.5105 56.0891C88.2933 57.9196 87.9411 59.7474 87.4642 61.522L86.7741 64.0891L93.3531 66.7919Z" fill="#FF2F00"/>
</svg>
