<?xml version="1.0" encoding="utf-8"?>
<!DOCTYPE svg PUBLIC "-//W3C//DTD SVG 1.1//EN" "http://www.w3.org/Graphics/SVG/1.1/DTD/svg11.dtd">
<svg width="103" height="103" viewBox="0 0 103 103" fill="none" xmlns="http://www.w3.org/2000/svg">
<path d="M30 15H36V21H30V15Z" fill="#FF2F00"/>
<path fill-rule="evenodd" clip-rule="evenodd" d="M49 73V54H85V73H49ZM55 67V60H79V67H55Z" fill="#FF2F00"/>
<path d="M31 82H25V88H31V82Z" fill="#FF2F00"/>
<path fill-rule="evenodd" clip-rule="evenodd" d="M71.2463 15.0856L37.461 3.6582L37.456 3.67296C36.0482 3.23559 34.5516 3 33 3C24.7157 3 18 9.71573 18 18C18 22.9075 20.3567 27.2645 24 30.0011V39H16C7.16344 39 0 46.1634 0 55V72C0 79.9004 5.72602 86.4634 13.2544 87.7653C14.5521 94.7286 20.6604 100 28 100C35.2569 100 41.3101 94.8467 42.6999 88H79V94H73V100H91V94H85V88H87C95.8366 88 103 80.8366 103 72V55C103 46.1634 95.8366 39 87 39H79V24C79 19.4523 75.627 15.6925 71.2463 15.0856ZM33 27C37.9706 27 42 22.9706 42 18C42 13.0294 37.9706 9 33 9C28.0294 9 24 13.0294 24 18C24 22.9706 28.0294 27 33 27ZM48 18C48 21.3768 46.8842 24.493 45.0011 27H61.5121C61.1805 26.0617 61 25.0519 61 24C61 21.9605 61.6784 20.0794 62.8219 18.5701L47.2499 13.3031C47.7367 14.7806 48 16.3595 48 18ZM73 33V39H30V33H73ZM70 21C71.6569 21 73 22.3431 73 24C73 25.6569 71.6569 27 70 27C68.3431 27 67 25.6569 67 24C67 22.3431 68.3431 21 70 21ZM87 45C92.5229 45 97 49.4771 97 55V72C97 77.5228 92.5229 82 87 82H42.6999C41.3101 75.1533 35.2569 70 28 70C20.8666 70 14.8962 74.9794 13.375 81.6519C9.12552 80.499 6 76.6145 6 72V55C6 49.4772 10.4772 45 16 45H87ZM37 85C37 89.9706 32.9706 94 28 94C23.0294 94 19 89.9706 19 85C19 80.0294 23.0294 76 28 76C32.9706 76 37 80.0294 37 85Z" fill="#FF2F00"/>
</svg>
